<svg xmlns="http://www.w3.org/2000/svg" xmlns:xlink="http://www.w3.org/1999/xlink" width="1042" height="78" viewBox="0 0 1042 78"><defs><style>.a{fill:#00995d;}.b,.d,.e{fill:#fff;}.b{font-size:24px;letter-spacing:-0.027em;}.b,.e{font-family:TrebuchetMS-Bold, Trebuchet MS;font-weight:700;}.c{fill:none;stroke:#fff;stroke-linecap:round;stroke-linejoin:round;stroke-width:3px;}.e{stroke:rgba(0,0,0,0);font-size:14px;}.f{filter:url(#a);}</style><filter id="a" x="0" y="0" width="1042" height="78" filterUnits="userSpaceOnUse"><feOffset dy="2" input="SourceAlpha"/><feGaussianBlur stdDeviation="3" result="b"/><feFlood flood-opacity="0.161"/><feComposite operator="in" in2="b"/><feComposite in="SourceGraphic"/></filter></defs><g transform="translate(-61.48 30)"><g transform="translate(70.48 -23)"><g class="f" transform="matrix(1, 0, 0, 1, -9, -7)"><rect class="a" width="1024" height="60" transform="translate(9 7)"/></g><text class="b" transform="translate(436 39)"><tspan x="0" y="0">Administrativo</tspan></text><g transform="translate(956 21)"><circle class="c" cx="8" cy="8" r="8" transform="translate(0 0)"/><line class="c" x1="4.35" y1="4.35" transform="translate(13.65 13.65)"/></g><path class="d" d="M104.285,7.107,109.6,1.791a.779.779,0,0,0,0-1.1l-.466-.465a.778.778,0,0,0-1.1,0l-6.328,6.328a.784.784,0,0,0,0,1.1l6.322,6.322a.779.779,0,0,0,1.1,0l.466-.465a.778.778,0,0,0,0-1.1Z" transform="translate(-60.48 23)"/><text class="e" transform="translate(58 35)"><tspan x="0" y="0">VOLTAR</tspan></text></g></g></svg>